<svg xmlns="http://www.w3.org/2000/svg" data-name="Layer 1" viewBox="0 0 100 125" x="0px" y="0px"><title>food</title><path d="M83.2,52.81a.58.58,0,0,0-.43-.49L82,52.09a1,1,0,0,0-.22-.88C71.15,38.28,60.72,24.2,48.6,12.64a.32.32,0,0,0-.39,0,.59.59,0,0,0-.46,0A124.48,124.48,0,0,0,17.15,34.36c-.25.24.13.61.38.38A137.5,137.5,0,0,1,48.34,13.66a.56.56,0,0,0,.12-.1c2.86,4.28,6,8.45,9.23,12.54a4.86,4.86,0,0,0-1.6,5.65A5,5,0,0,0,63,34.35a.86.86,0,0,0-.66-1.57c-1.87.6-3.86.26-4.8-1.66a3.63,3.63,0,0,1,.79-4.22C65,35.23,72.28,43.24,79.13,51.24,64.18,46.78,49,43,33.81,39.2a.79.79,0,0,0,.48-.54A4.74,4.74,0,0,0,30.43,33a6.28,6.28,0,0,0-6.72,3.56.27.27,0,0,0,0,.11L17.23,35a.3.3,0,0,0-.38.28.45.45,0,0,0-.11.3C16.48,49,17.12,62.63,18,76a1.12,1.12,0,0,0,1.9.73c8.89,2.48,18.34,3.62,27.37,5.42q14.52,2.89,29,5.94c1.22.25,1.74-1.6.52-1.87q-14.92-3.37-30-6.18l-3.36-.65a.73.73,0,0,0,0-.34c-.79-7.2-10.41-9.36-13.57-2.53a.29.29,0,0,0,0,.28c-3.27-.54-6.54-1-9.8-1.2-.37-13.21-1-26.69-2.46-39.82,10.43,2.92,20.86,6,31.32,9-.78,2.76-3.16,6-6.4,4.23-2.58-1.37-2.6-4.09-2.94-6.6,0-.33-.49-.24-.58,0-1.21,3.19.64,7.46,4,8.39,3.76,1,6.58-2.29,7.39-5.59q8.61,2.44,17.26,4.72a4.07,4.07,0,0,0,1.92,5.87,4.23,4.23,0,0,0,5.84-3.63.67.67,0,0,0,0-.26c2.24.56,4.48,1.1,6.73,1.63-2,10.38-3.79,20.87-5.32,31.34-.19,1.31,1.8,1.9,2,.56C80.67,74.74,82.22,64,83.46,53.31A.49.49,0,0,0,83.2,52.81Zm-52.77,24c3.07-5.15,10.82-3.93,11.5,2.24,0,0,0,0,0,0-3.83-.77-7.7-1.56-11.57-2.21Zm-1.12-42.5a3.48,3.48,0,0,1,3.22,4.13.7.7,0,0,0,.12.49l-8.42-2.12A6,6,0,0,1,29.31,34.29ZM74.16,51.92c-.5,1.81-1.92,3.21-3.92,2.47a3,3,0,0,1-1.53-4.27c1.89.49,3.78,1,5.68,1.46A.63.63,0,0,0,74.16,51.92ZM26,58.39a3.37,3.37,0,0,0,3.8-2.69,3.65,3.65,0,0,0-2.46-3.95A3.6,3.6,0,0,0,23,53.94c-.17.48.33.77.72.65,0,0-.05,0-.06.09A3.13,3.13,0,0,0,26,58.39Zm.65-5.55a2.29,2.29,0,1,1-2.45,1.91c0-.2-.17-.29-.34-.28a.53.53,0,0,0,.1-.11A2.92,2.92,0,0,1,26.67,52.84ZM59.56,64.7a2.73,2.73,0,0,0-5-2.07.71.71,0,0,1-1.23-.72c2.2-3.93,8.18-1.7,7.55,2.69A4.31,4.31,0,0,1,57,68.14a4.37,4.37,0,0,1-4.39-2.88c-.22-.53.69-.9.93-.39C54.73,67.37,58.84,67.83,59.56,64.7Zm5,10a4.09,4.09,0,0,0,5,3.26,4.26,4.26,0,1,0-2.83-8,3.8,3.8,0,0,0-2,4.41A.33.33,0,0,0,64.53,74.74Zm2,.1a2.48,2.48,0,0,1,1.11-3.4,2.73,2.73,0,0,1,3.5,1.77A3,3,0,0,1,69,76.94,3,3,0,0,1,66,76,.9.9,0,0,0,66.56,74.84ZM38.36,23.56l0,0a.4.4,0,0,0-.56.12,3.71,3.71,0,0,0,.49,4.76,3.59,3.59,0,0,0,4.89-.16,3.53,3.53,0,0,0,0-4.72A3.48,3.48,0,0,0,38.36,23.56Zm3.67,4a2.43,2.43,0,0,1-3.17,0,2.71,2.71,0,0,1-.58-3,.75.75,0,0,0,1.16.14,2,2,0,0,1,2.79.08A2.19,2.19,0,0,1,42,27.54Zm17.3,13.36c-.42,2.14,2.48,3.75,3.74,1.71a2,2,0,0,0-.34-2.45,2,2,0,0,0-2.56,0c-.65.48-1.3-.62-.64-1.09A3.15,3.15,0,0,1,64,43.41a3.14,3.14,0,0,1-3.92.91,3.05,3.05,0,0,1-1.34-3.59A.32.32,0,0,1,59.33,40.89ZM44.65,38.41a3.57,3.57,0,0,0,4.68-1.19,3.55,3.55,0,0,0-6-3.73.66.66,0,0,0,0,.8A3.42,3.42,0,0,0,44.65,38.41Zm2.62-4.77a2.18,2.18,0,0,1,.84,2.87,2.27,2.27,0,0,1-2.88.89,2.39,2.39,0,0,1-1.19-2.75.6.6,0,0,0,.45-.23A2.26,2.26,0,0,1,47.28,33.64Z"/><text x="0" y="115" fill="#000000" font-size="5px" font-weight="bold" font-family="'Helvetica Neue', Helvetica, Arial-Unicode, Arial, Sans-serif">Created by Caroline Mackay</text><text x="0" y="120" fill="#000000" font-size="5px" font-weight="bold" font-family="'Helvetica Neue', Helvetica, Arial-Unicode, Arial, Sans-serif">from the Noun Project</text></svg>