<svg xmlns="http://www.w3.org/2000/svg" xmlns:xlink="http://www.w3.org/1999/xlink" version="1.1" x="0px" y="0px" viewBox="0 0 50 62.5" style="enable-background:new 0 0 50 50;" xml:space="preserve"><path d="M41.4736328,26.3330078l-0.5576172-0.4199219c-1.0175781-0.7631836-2.0693359-1.5522461-3.046875-2.5161133  c-0.5332031-0.5253906-0.9892578-1.1630859-1.5175781-1.9013672c-0.7587891-1.0605469-1.703125-2.3803711-3.3017578-3.9780273  c-1.5976563-1.5976563-2.9169922-2.5419922-3.9775391-3.3012695c-0.7382813-0.5283203-1.3759766-0.9848633-1.9013672-1.5175781  c-0.9648438-0.9780273-1.7548828-2.0307617-2.5175781-3.0488281L24.234375,9.0932617  c-0.5244141-0.6914063-1.3193359-1.1220703-2.1796875-1.1806641c-0.9013672-0.0668945-1.8017578,0.2875977-2.4716797,0.9589844  l-0.515625,0.5151367c-0.6191406,0.6196289-0.9404297,1.4755859-0.8808594,2.3486328  c0.0595703,0.8745117,0.4951172,1.6801758,1.1953125,2.2109375l0.5507813,0.4145508  c1.0205078,0.7646484,2.0751953,1.5551758,3.0537109,2.5214844c0.5332031,0.5253906,0.9892578,1.1635742,1.5185547,1.9018555  c0.4772339,0.666748,1.0286255,1.4366455,1.769104,2.3134155l-7.8775024,7.8775024  c-0.3378906,0.3374023-0.5234375,0.7861328-0.5234375,1.2631836c0,0.4682007,0.1807251,0.9077148,0.5067749,1.2429199  l-0.8475952,0.8479004l-0.0810547,0.7329102l-1.4345703,0.1113281c-0.2744141-0.0297852-0.5478516,0.0683594-0.7451172,0.265625  c-0.2148438,0.215332-0.3105469,0.5224609-0.2539063,0.8222656l0.3330078,1.7753906l-1.7753906-0.3330078  c-0.3007813-0.0566406-0.6074219,0.0390625-0.8232422,0.2553711c-0.2158203,0.2158203-0.3095703,0.5234375-0.2529297,0.8212891  l0.3320313,1.7753906l-1.7753906-0.3334961c-0.2988281-0.0537109-0.6064453,0.0390625-0.8222656,0.2548828  c-0.2148438,0.215332-0.3105469,0.5224609-0.2539063,0.8222656L10.3125,41.074707l-2.3828125-0.4467773  c-0.2685547-0.0527344-0.5322266,0.1269531-0.5830078,0.3989258c-0.0507813,0.2714844,0.1279297,0.5327148,0.3994141,0.5834961  l2.4931641,0.4682617c0.0566406,0.0102539,0.1132813,0.015625,0.1699219,0.015625  c0.2431641,0,0.4785156-0.0957031,0.6533203-0.2705078c0.2148438-0.2158203,0.3105469-0.5229492,0.2539063-0.8222656  l-0.3330078-1.7753906l1.7753906,0.3334961c0.2988281,0.0541992,0.6064453-0.0390625,0.8222656-0.2548828  c0.2148438-0.215332,0.3105469-0.5224609,0.2539063-0.8222656l-0.3320313-1.7753906l1.7744141,0.3334961  c0.2998047,0.0537109,0.6074219-0.0390625,0.8232422-0.2548828c0.2148438-0.2158203,0.3105469-0.5229492,0.2539063-0.8222656  l-0.3359375-1.7875977l2.3369141-0.1801758l0.1318359-1.2084961l0.5993652-0.5990601  c0.3356323,0.3256226,0.7747192,0.5067749,1.2434082,0.5067749c0.4775391,0,0.9257813-0.1860352,1.2626953-0.5234375  l7.8779297-7.8774414c0.8762207,0.7399902,1.6456909,1.2911987,2.3125,1.7685547  c0.7382813,0.5288086,1.3759766,0.9853516,1.9013672,1.5180664c0.9677734,0.980957,1.7597656,2.0366211,2.5244141,3.0576172  l0.4121094,0.5478516c0.5302734,0.699707,1.3369141,1.1352539,2.2109375,1.1948242  c0.0693359,0.0048828,0.1386719,0.0073242,0.2070313,0.0073242c0.8007813,0,1.5722656-0.3173828,2.1425781-0.8881836  l0.5146484-0.5151367c0.6708984-0.6708984,1.0205078-1.5717773,0.9589844-2.4726563  C42.5957031,27.6518555,42.1660156,26.8574219,41.4736328,26.3330078z M20.8857422,31.4643555  c-0.296875,0.296875-0.8154297,0.296875-1.1123047,0l-0.6699219-0.6699219  c-0.1484375-0.1489258-0.2304688-0.3461914-0.2304688-0.5561523s0.0820313-0.4072266,0.2304688-0.5561523l7.833252-7.833252  c0.2686157,0.2944946,0.5527344,0.5966797,0.8688965,0.9128418c0.3164673,0.3164063,0.6188965,0.600708,0.9136963,0.8695068  L20.8857422,31.4643555z M40.9892578,30.277832l-0.5146484,0.5151367c-0.4160156,0.4150391-0.9804688,0.6245117-1.5742188,0.590332  c-0.5859375-0.0400391-1.1269531-0.3325195-1.4824219-0.8012695l-0.4082031-0.543457  c-0.7490234-0.9990234-1.5976563-2.1313477-2.6123047-3.1601563c-0.5859375-0.59375-1.2568359-1.0737305-2.0322266-1.6293945  c-1.03125-0.7373047-2.3134766-1.6552734-3.8525391-3.1943359c-1.5390625-1.5395508-2.4570313-2.8222656-3.1953125-3.8525391  c-0.5546875-0.7758789-1.0351563-1.4458008-1.6279297-2.0317383c-1.0273438-1.0136719-2.1591797-1.8618164-3.1572266-2.6098633  l-0.546875-0.4111328c-0.46875-0.355957-0.7607422-0.8959961-0.8007813-1.4824219  c-0.0400391-0.5844727,0.1748047-1.1582031,0.5898438-1.5732422l0.515625-0.5151367  c0.4736328-0.4736328,1.0654297-0.7148438,1.6972656-0.668457C22.5673828,8.949707,23.0820313,9.2294922,23.4375,9.6977539  l0.4150391,0.5517578c0.7470703,0.996582,1.59375,2.1254883,2.6064453,3.1513672  c0.5849609,0.59375,1.2558594,1.0732422,2.03125,1.6289063c1.0302734,0.7373047,2.3134766,1.6552734,3.8525391,3.1948242  c1.5400391,1.5395508,2.4580078,2.8222656,3.1953125,3.8530273c0.5556641,0.7758789,1.0351563,1.4458008,1.6289063,2.03125  c1.0253906,1.0117188,2.1533203,1.8579102,3.1494141,2.6044922l0.5537109,0.4165039  C41.3378906,27.4848633,41.6171875,28,41.6572266,28.5805664C41.7001953,29.2016602,41.4628906,29.8046875,40.9892578,30.277832z   M30.4277344,19.0356445c-0.6083984,0-1.1035156,0.4951172-1.1035156,1.1040039s0.4951172,1.1044922,1.1035156,1.1044922  c0.609375,0,1.1044922-0.4956055,1.1044922-1.1044922S31.0371094,19.0356445,30.4277344,19.0356445z M30.4277344,20.7441406  c-0.3330078,0-0.6035156-0.2709961-0.6035156-0.6044922c0-0.3330078,0.2705078-0.6040039,0.6035156-0.6040039  s0.6044922,0.2709961,0.6044922,0.6040039C31.0322266,20.4731445,30.7607422,20.7441406,30.4277344,20.7441406z"/><text x="0" y="65" fill="#000000" font-size="5px" font-weight="bold" font-family="'Helvetica Neue', Helvetica, Arial-Unicode, Arial, Sans-serif">Created by ATOM</text><text x="0" y="70" fill="#000000" font-size="5px" font-weight="bold" font-family="'Helvetica Neue', Helvetica, Arial-Unicode, Arial, Sans-serif">from the Noun Project</text></svg>