<svg height='100px' width='100px'  fill="#000000" xmlns="http://www.w3.org/2000/svg" xmlns:xlink="http://www.w3.org/1999/xlink" version="1.1" x="0px" y="0px" viewBox="0 0 100 100" style="enable-background:new 0 0 100 100;" xml:space="preserve"><g><path d="M71.5,28.4c0-2.1-0.1-4.2-0.4-6.2c-19.9-3.8-20.3,3.8-39.8-0.1c-0.2,2.1-0.4,4.2-0.4,6.3c0,10.7,9.1,22.5,20.3,22.5   S71.5,39,71.5,28.4z"></path><path d="M63.8,91.1c-3-0.8-6.9-1.2-11-1.3c-0.1-0.5-0.1-1-0.1-1.7c0-3.3,0.4-30.7,0.5-34.6c5.3-0.6,10.3-3.3,14.3-7.7   c4.3-4.8,6.7-10.9,6.7-16.9c0-11.7-4.2-24-4.2-24.1l0,0c-0.1-0.8-1.1-1.7-5.9-2.4c-3.5-0.5-8.1-0.8-13-0.8s-9.5,0.3-13,0.8   c-4.8,0.7-5.8,1.7-5.9,2.4l0,0c0,0.1-4.2,12.4-4.2,24.1c0,5.9,2.5,12.1,6.7,16.9c4,4.5,9,7.2,14.3,7.7c0.1,3.8,0.5,31.3,0.5,34.6   c0,0.6,0,1.2-0.1,1.7c-4.1,0.1-8,0.5-11,1.2c-3.3,0.8-5,2-5.1,3h0l0,1.4c0,1.3,1.8,2.3,5.5,3.1c3.3,0.7,7.6,1.1,12.2,1.1   c4.6,0,9-0.4,12.2-1c3.7-0.7,5.5-1.7,5.5-3c0,0,0.1-1.2,0.1-1.3C68.9,93,67.2,91.9,63.8,91.1z M39,3.6c3.3-0.5,7.7-0.7,12.2-0.7   c4.5,0,8.9,0.3,12.2,0.7c3.9,0.5,5,1.2,5.2,1.4c-0.3,0.2-1.4,0.8-5.2,1.4C60,6.9,55.7,7.1,51.2,7.1S42.3,6.9,39,6.4   c-3.9-0.5-5-1.2-5.2-1.4C34,4.8,35.1,4.2,39,3.6z M35.7,44.9c-4.1-4.6-6.4-10.4-6.4-16c0-9.5,2.8-19.5,3.8-22.6   c0.8,0.5,2.3,1,5,1.4c3.5,0.5,8.1,0.8,13,0.8c4.9,0,9.5-0.3,13-0.8c2.8-0.4,4.2-0.9,5-1.4c1,3.2,3.8,13.1,3.8,22.6   c0,5.6-2.3,11.5-6.4,16c-4.3,4.8-9.7,7.4-15.4,7.4C45.5,52.3,40,49.7,35.7,44.9z M63.2,97.4c-3.2,0.6-7.5,1-12,1   c-4.5,0-8.8-0.4-12-1c-2.1-0.4-3.3-0.9-3.9-1.3c0.9,0.4,2.1,0.7,3.8,1c3.1,0.5,7.5,0.8,12.2,0.8c4.8,0,9.1-0.3,12.2-0.8   c1.6-0.3,2.9-0.6,3.8-1C66.5,96.5,65.3,97,63.2,97.4z M51.2,96.7c-12.6,0-16.5-1.8-16.5-2.5c0-0.4,1.1-1.3,4.2-2   c2.9-0.7,6.5-1.2,10.4-1.3c-0.3,1.2-0.8,1.8-0.8,1.8l0,0.2h1.4c0.4-1,1-2.5,1-4.7c0-3.3-0.4-30.4-0.5-34.6c0.3,0,0.5,0,0.8,0   c0.3,0,0.5,0,0.8,0c-0.1,4.3-0.5,31.4-0.5,34.7c0,2.3,0.5,3.7,1,4.7h1.4l0-0.2c0,0-0.5-0.6-0.8-1.8c3.9,0.1,7.6,0.5,10.4,1.2   c3.1,0.8,4.2,1.6,4.2,2C67.7,94.9,63.8,96.7,51.2,96.7z"></path></g></svg>