<?xml version="1.0" encoding="UTF-8" standalone="no"?>
<svg
   xmlns:dc="http://purl.org/dc/elements/1.1/"
   xmlns:cc="http://creativecommons.org/ns#"
   xmlns:rdf="http://www.w3.org/1999/02/22-rdf-syntax-ns#"
   xmlns:svg="http://www.w3.org/2000/svg"
   xmlns="http://www.w3.org/2000/svg"
   xmlns:sodipodi="http://sodipodi.sourceforge.net/DTD/sodipodi-0.dtd"
   xmlns:inkscape="http://www.inkscape.org/namespaces/inkscape"
   width="81.313477mm"
   height="72.584526mm"
   viewBox="0 0 81.313477 72.584526"
   version="1.1"
   id="svg1256"
   inkscape:version="1.0.1 (3bc2e813f5, 2020-09-07)"
   sodipodi:docname="background.svg">
  <defs
     id="defs1250" />
  <sodipodi:namedview
     id="base"
     pagecolor="#ffffff"
     bordercolor="#666666"
     borderopacity="1.0"
     inkscape:pageopacity="0.0"
     inkscape:pageshadow="2"
     inkscape:zoom="0.98994949"
     inkscape:cx="466.66447"
     inkscape:cy="226.6819"
     inkscape:document-units="mm"
     inkscape:current-layer="layer1"
     inkscape:document-rotation="0"
     showgrid="false"
     inkscape:window-width="1530"
     inkscape:window-height="1016"
     inkscape:window-x="58"
     inkscape:window-y="27"
     inkscape:window-maximized="0" />
  <metadata
     id="metadata1253">
    <rdf:RDF>
      <cc:Work
         rdf:about="">
        <dc:format>image/svg+xml</dc:format>
        <dc:type
           rdf:resource="http://purl.org/dc/dcmitype/StillImage" />
        <dc:title></dc:title>
      </cc:Work>
    </rdf:RDF>
  </metadata>
  <g
     inkscape:label="Layer 1"
     inkscape:groupmode="layer"
     id="layer1"
     transform="translate(-14.799864,-12.208371)">
    <g
       style="fill:#000000"
       id="g1411"
       transform="matrix(0.25556787,-0.0684792,0.0684792,0.25556787,19.145662,23.277621)">
      <g
         id="g1398"
         style="fill:#000000">
        <path
           d="m 71.5,28.4 c 0,-2.1 -0.1,-4.2 -0.4,-6.2 -19.9,-3.8 -20.3,3.8 -39.8,-0.1 -0.2,2.1 -0.4,4.2 -0.4,6.3 0,10.7 9.1,22.5 20.3,22.5 11.2,0 20.3,-11.9 20.3,-22.5 z"
           id="path1394"
           style="fill:#000000" />
        <path
           d="m 63.8,91.1 c -3,-0.8 -6.9,-1.2 -11,-1.3 -0.1,-0.5 -0.1,-1 -0.1,-1.7 0,-3.3 0.4,-30.7 0.5,-34.6 5.3,-0.6 10.3,-3.3 14.3,-7.7 C 71.8,41 74.2,34.9 74.2,28.9 74.2,17.2 70,4.9 70,4.8 v 0 C 69.9,4 68.9,3.1 64.1,2.4 60.6,1.9 56,1.6 51.1,1.6 c -4.9,0 -9.5,0.3 -13,0.8 -4.8,0.7 -5.8,1.7 -5.9,2.4 v 0 c 0,0.1 -4.2,12.4 -4.2,24.1 0,5.9 2.5,12.1 6.7,16.9 4,4.5 9,7.2 14.3,7.7 0.1,3.8 0.5,31.3 0.5,34.6 0,0.6 0,1.2 -0.1,1.7 -4.1,0.1 -8,0.5 -11,1.2 -3.3,0.8 -5,2 -5.1,3 v 0 1.4 c 0,1.3 1.8,2.3 5.5,3.1 3.3,0.7 7.6,1.1 12.2,1.1 4.6,0 9,-0.4 12.2,-1 3.7,-0.7 5.5,-1.7 5.5,-3 0,0 0.1,-1.2 0.1,-1.3 0.1,-1.3 -1.6,-2.4 -5,-3.2 z M 39,3.6 c 3.3,-0.5 7.7,-0.7 12.2,-0.7 4.5,0 8.9,0.3 12.2,0.7 3.9,0.5 5,1.2 5.2,1.4 C 68.3,5.2 67.2,5.8 63.4,6.4 60,6.9 55.7,7.1 51.2,7.1 46.7,7.1 42.3,6.9 39,6.4 35.1,5.9 34,5.2 33.8,5 34,4.8 35.1,4.2 39,3.6 Z m -3.3,41.3 c -4.1,-4.6 -6.4,-10.4 -6.4,-16 0,-9.5 2.8,-19.5 3.8,-22.6 0.8,0.5 2.3,1 5,1.4 3.5,0.5 8.1,0.8 13,0.8 4.9,0 9.5,-0.3 13,-0.8 2.8,-0.4 4.2,-0.9 5,-1.4 1,3.2 3.8,13.1 3.8,22.6 0,5.6 -2.3,11.5 -6.4,16 -4.3,4.8 -9.7,7.4 -15.4,7.4 -5.6,0 -11.1,-2.6 -15.4,-7.4 z m 27.5,52.5 c -3.2,0.6 -7.5,1 -12,1 -4.5,0 -8.8,-0.4 -12,-1 -2.1,-0.4 -3.3,-0.9 -3.9,-1.3 0.9,0.4 2.1,0.7 3.8,1 3.1,0.5 7.5,0.8 12.2,0.8 4.8,0 9.1,-0.3 12.2,-0.8 1.6,-0.3 2.9,-0.6 3.8,-1 -0.8,0.4 -2,0.9 -4.1,1.3 z m -12,-0.7 c -12.6,0 -16.5,-1.8 -16.5,-2.5 0,-0.4 1.1,-1.3 4.2,-2 2.9,-0.7 6.5,-1.2 10.4,-1.3 -0.3,1.2 -0.8,1.8 -0.8,1.8 v 0.2 h 1.4 c 0.4,-1 1,-2.5 1,-4.7 0,-3.3 -0.4,-30.4 -0.5,-34.6 0.3,0 0.5,0 0.8,0 0.3,0 0.5,0 0.8,0 -0.1,4.3 -0.5,31.4 -0.5,34.7 0,2.3 0.5,3.7 1,4.7 h 1.4 v -0.2 c 0,0 -0.5,-0.6 -0.8,-1.8 3.9,0.1 7.6,0.5 10.4,1.2 3.1,0.8 4.2,1.6 4.2,2 0,0.7 -3.9,2.5 -16.5,2.5 z"
           id="path1396"
           style="fill:#000000" />
      </g>
    </g>
    <g
       id="g1467"
       transform="matrix(0,-0.76013418,0.65602942,0,54.892279,20.413668)"
       style="fill:#000000">
      <path
         d="m -2.2608784,28.911213 -0.5464848,-0.40755 c -0.997264,-0.740699 -2.0280238,-1.506514 -2.9860472,-2.441983 -0.5225591,-0.509912 -0.9695085,-1.128819 -1.4872821,-1.84535 -0.7436405,-1.029299 -1.6691238,-2.31024 -3.2358405,-3.860825 -1.565761,-1.550586 -2.858758,-2.467099 -3.898131,-3.204006 -0.723543,-0.512756 -1.348507,-0.955848 -1.863409,-1.472867 -0.945581,-0.949213 -1.719848,-1.970931 -2.467318,-2.959003 l -0.410581,-0.540241 c -0.513944,-0.671036 -1.292997,-1.089011 -2.136173,-1.145879 -0.883372,-0.06492 -1.765786,0.279125 -2.422334,0.93073 l -0.505331,0.49996 c -0.606781,0.601373 -0.921655,1.432112 -0.863275,2.279437 0.05838,0.848746 0.485234,1.630673 1.17145,2.145798 l 0.539785,0.402337 c 1.000135,0.74212 2.033767,1.509357 2.992747,2.447196 0.522558,0.509912 0.969509,1.129292 1.488239,1.845823 0.467706,0.647104 1.008089,1.394318 1.733785,2.245257 l -7.720236,7.645414 c -0.331145,0.327462 -0.512987,0.762971 -0.512987,1.225967 0,0.454407 0.177117,0.880972 0.496657,1.206301 l -0.830673,0.822919 -0.07943,0.711318 -1.40593,0.108048 c -0.268937,-0.02891 -0.536915,0.06635 -0.730243,0.257799 -0.210554,0.208988 -0.304347,0.507068 -0.248837,0.798039 l 0.32636,1.723084 -1.739947,-0.323197 c -0.294776,-0.05497 -0.595296,0.03791 -0.806807,0.247847 -0.211511,0.209463 -0.30339,0.508017 -0.247881,0.797092 l 0.325404,1.723085 -1.739947,-0.323671 c -0.292863,-0.05213 -0.594338,0.03791 -0.80585,0.247374 -0.210555,0.208988 -0.304348,0.507068 -0.248838,0.798039 l 0.326355,1.723084 -2.335242,-0.433614 c -0.263194,-0.05118 -0.521601,0.123213 -0.571369,0.387172 -0.04977,0.263486 0.125376,0.51702 0.39144,0.566306 l 2.443391,0.454465 c 0.05551,0.0099 0.11102,0.01517 0.16653,0.01517 0.23831,0 0.468962,-0.09288 0.640277,-0.262538 0.210555,-0.209461 0.304348,-0.507542 0.248837,-0.798039 l -0.326359,-1.723084 1.739947,0.32367 c 0.292862,0.0526 0.594339,-0.03791 0.80585,-0.247372 0.210555,-0.208988 0.304347,-0.507069 0.248837,-0.798041 l -0.325402,-1.723084 1.738989,0.323671 c 0.29382,0.05213 0.595296,-0.03791 0.806807,-0.247373 0.210555,-0.209462 0.304347,-0.507543 0.248837,-0.79804 l -0.32923,-1.734932 2.29026,-0.174866 0.129204,-1.172892 0.587399,-0.581411 c 0.328931,0.31603 0.759252,0.491845 1.218585,0.491845 0.468005,0 0.907299,-0.180554 1.237487,-0.508016 l 7.720654,-7.645355 c 0.858728,0.718189 1.612837,1.253158 2.266334,1.71645 0.723543,0.513229 1.348506,0.956321 1.8634083,1.47334 0.9484524,0.952056 1.7246331,1.976619 2.4740166,2.967534 l 0.4038817,0.53171 c 0.5196866,0.679092 1.3102239,1.101807 2.1667989,1.159622 0.067956,0.0048 0.1359025,0.0071 0.2028978,0.0071 0.7847942,0 1.5408763,-0.308033 2.0998036,-0.862016 l 0.5043736,-0.49996 c 0.6575052,-0.651132 1.0001346,-1.525469 0.9398399,-2.399806 -0.058381,-0.835005 -0.4794905,-1.606032 -1.1580508,-2.114995 z m -20.1768746,4.980166 c -0.290948,0.288129 -0.799151,0.288129 -1.090099,0 l -0.656546,-0.650184 c -0.145475,-0.144538 -0.225868,-0.335992 -0.225868,-0.539767 0,-0.203775 0.08039,-0.395228 0.225868,-0.539767 l 7.676869,-7.602467 c 0.263252,0.285819 0.541699,0.579101 0.851549,0.885948 0.310149,0.307084 0.606541,0.58301 0.895455,0.843889 z m 19.7021696,-1.151565 -0.5043745,0.49996 c -0.4077097,0.402811 -0.960894,0.606111 -1.5427904,0.572939 -0.5742403,-0.03886 -1.1044555,-0.322723 -1.4528269,-0.777663 l -0.4000536,-0.527445 c -0.7340705,-0.96959 -1.5657615,-2.068554 -2.560153,-3.067051 -0.5742404,-0.576257 -1.2317442,-1.042097 -1.9916552,-1.581389 -1.010662,-0.715582 -2.26729,-1.606505 -3.775627,-3.100224 -1.508336,-1.494192 -2.407979,-2.739115 -3.131521,-3.739035 -0.543614,-0.75302 -1.014491,-1.403204 -1.59543,-1.971879 -1.006834,-0.983807 -2.116074,-1.806962 -3.094196,-2.53297 l -0.535957,-0.39902 c -0.459392,-0.34547 -0.745555,-0.869598 -0.784795,-1.438747 -0.03924,-0.567253 0.171316,-1.12408 0.578069,-1.526891 l 0.505331,-0.499959 c 0.464177,-0.459678 1.04416,-0.693783 1.663381,-0.648762 0.568498,0.03838 1.072872,0.309927 1.421244,0.764392 l 0.406753,0.535502 c 0.732156,0.967221 1.561933,2.062867 2.55441,3.058521 0.573283,0.576257 1.230788,1.041622 1.990698,1.580915 1.009706,0.715582 2.267291,1.606506 3.775627,3.100697 1.5092946,1.494193 2.4089363,2.739116 3.1315217,3.73951 0.5445708,0.753019 1.0144902,1.403204 1.5963866,1.971404 1.0049201,0.981912 2.1103321,1.803172 3.0865392,2.527758 l 0.5426567,0.404233 c 0.4584353,0.344522 0.7321555,0.844482 0.7713961,1.407943 0.042112,0.602795 -0.1904563,1.188056 -0.6546337,1.647261 z M -13.086257,21.828845 c -0.596252,0 -1.081484,0.480531 -1.081484,1.071478 0,0.590948 0.485232,1.071952 1.081484,1.071952 0.59721,0 1.082443,-0.481004 1.082443,-1.071952 0,-0.590947 -0.485233,-1.071478 -1.082443,-1.071478 z m 0,1.658161 c -0.326359,0 -0.591466,-0.263013 -0.591466,-0.586683 0,-0.323196 0.265107,-0.586208 0.591466,-0.586208 0.32636,0 0.592425,0.263012 0.592425,0.586208 0,0.32367 -0.266065,0.586683 -0.592425,0.586683 z"
         id="path1450"
         style="stroke-width:0.975275;fill:#000000" />
    </g>
    <g
       id="g1532"
       transform="matrix(-0.33504082,0.08604489,0.02368171,0.23988325,62.772817,52.02836)"
       style="fill:#000000">
      <path
         d="M 83.2,52.81 A 0.58,0.58 0 0 0 82.77,52.32 L 82,52.09 A 1,1 0 0 0 81.78,51.21 C 71.15,38.28 60.72,24.2 48.6,12.64 a 0.32,0.32 0 0 0 -0.39,0 0.59,0.59 0 0 0 -0.46,0 124.48,124.48 0 0 0 -30.6,21.72 c -0.25,0.24 0.13,0.61 0.38,0.38 a 137.5,137.5 0 0 1 30.81,-21.08 0.56,0.56 0 0 0 0.12,-0.1 c 2.86,4.28 6,8.45 9.23,12.54 a 4.86,4.86 0 0 0 -1.6,5.65 5,5 0 0 0 6.91,2.6 0.86,0.86 0 0 0 -0.66,-1.57 c -1.87,0.6 -3.86,0.26 -4.8,-1.66 A 3.63,3.63 0 0 1 58.33,26.9 C 65,35.23 72.28,43.24 79.13,51.24 64.18,46.78 49,43 33.81,39.2 a 0.79,0.79 0 0 0 0.48,-0.54 4.74,4.74 0 0 0 -3.86,-5.66 6.28,6.28 0 0 0 -6.72,3.56 0.27,0.27 0 0 0 0,0.11 L 17.23,35 a 0.3,0.3 0 0 0 -0.38,0.28 0.45,0.45 0 0 0 -0.11,0.3 C 16.48,49 17.12,62.63 18,76 a 1.12,1.12 0 0 0 1.9,0.73 c 8.89,2.48 18.34,3.62 27.37,5.42 q 14.52,2.89 29,5.94 c 1.22,0.25 1.74,-1.6 0.52,-1.87 q -14.92,-3.37 -30,-6.18 l -3.36,-0.65 a 0.73,0.73 0 0 0 0,-0.34 C 42.64,71.85 33.02,69.69 29.86,76.52 a 0.29,0.29 0 0 0 0,0.28 c -3.27,-0.54 -6.54,-1 -9.8,-1.2 -0.37,-13.21 -1,-26.69 -2.46,-39.82 10.43,2.92 20.86,6 31.32,9 -0.78,2.76 -3.16,6 -6.4,4.23 -2.58,-1.37 -2.6,-4.09 -2.94,-6.6 0,-0.33 -0.49,-0.24 -0.58,0 -1.21,3.19 0.64,7.46 4,8.39 3.76,1 6.58,-2.29 7.39,-5.59 q 8.61,2.44 17.26,4.72 a 4.07,4.07 0 0 0 1.92,5.87 4.23,4.23 0 0 0 5.84,-3.63 0.67,0.67 0 0 0 0,-0.26 c 2.24,0.56 4.48,1.1 6.73,1.63 -2,10.38 -3.79,20.87 -5.32,31.34 -0.19,1.31 1.8,1.9 2,0.56 1.85,-10.7 3.4,-21.44 4.64,-32.13 a 0.49,0.49 0 0 0 -0.26,-0.5 z m -52.77,24 c 3.07,-5.15 10.82,-3.93 11.5,2.24 0,0 0,0 0,0 -3.83,-0.77 -7.7,-1.56 -11.57,-2.21 z m -1.12,-42.5 a 3.48,3.48 0 0 1 3.22,4.13 0.7,0.7 0 0 0 0.12,0.49 l -8.42,-2.12 a 6,6 0 0 1 5.08,-2.52 z m 44.85,17.61 c -0.5,1.81 -1.92,3.21 -3.92,2.47 a 3,3 0 0 1 -1.53,-4.27 c 1.89,0.49 3.78,1 5.68,1.46 a 0.63,0.63 0 0 0 -0.23,0.34 z M 26,58.39 A 3.37,3.37 0 0 0 29.8,55.7 3.65,3.65 0 0 0 27.34,51.75 3.6,3.6 0 0 0 23,53.94 c -0.17,0.48 0.33,0.77 0.72,0.65 0,0 -0.05,0 -0.06,0.09 A 3.13,3.13 0 0 0 26,58.39 Z m 0.65,-5.55 a 2.29,2.29 0 1 1 -2.45,1.91 c 0,-0.2 -0.17,-0.29 -0.34,-0.28 a 0.53,0.53 0 0 0 0.1,-0.11 2.92,2.92 0 0 1 2.71,-1.52 z M 59.56,64.7 a 2.73,2.73 0 0 0 -5,-2.07 0.71261841,0.71261841 0 0 1 -1.23,-0.72 c 2.2,-3.93 8.18,-1.7 7.55,2.69 A 4.31,4.31 0 0 1 57,68.14 4.37,4.37 0 0 1 52.61,65.26 c -0.22,-0.53 0.69,-0.9 0.93,-0.39 1.19,2.5 5.3,2.96 6.02,-0.17 z m 5,10 a 4.09,4.09 0 0 0 5,3.26 4.26,4.26 0 1 0 -2.83,-8 3.8,3.8 0 0 0 -2,4.41 0.33,0.33 0 0 0 -0.2,0.37 z m 2,0.1 a 2.48,2.48 0 0 1 1.11,-3.4 2.73,2.73 0 0 1 3.5,1.77 A 3,3 0 0 1 69,76.94 3,3 0 0 1 66,76 0.9,0.9 0 0 0 66.56,74.84 Z M 38.36,23.56 v 0 a 0.4,0.4 0 0 0 -0.56,0.12 3.71,3.71 0 0 0 0.49,4.76 3.59,3.59 0 0 0 4.89,-0.16 3.53,3.53 0 0 0 0,-4.72 3.48,3.48 0 0 0 -4.82,0 z m 3.67,4 a 2.43,2.43 0 0 1 -3.17,0 2.71,2.71 0 0 1 -0.58,-3 0.75,0.75 0 0 0 1.16,0.14 2,2 0 0 1 2.79,0.08 2.19,2.19 0 0 1 -0.23,2.76 z m 17.3,13.36 c -0.42,2.14 2.48,3.75 3.74,1.71 a 2,2 0 0 0 -0.34,-2.45 2,2 0 0 0 -2.56,0 c -0.65,0.48 -1.3,-0.62 -0.64,-1.09 a 3.15,3.15 0 0 1 4.47,4.32 3.14,3.14 0 0 1 -3.92,0.91 3.05,3.05 0 0 1 -1.34,-3.59 0.32,0.32 0 0 1 0.59,0.16 z M 44.65,38.41 a 3.57,3.57 0 0 0 4.68,-1.19 3.55,3.55 0 0 0 -6,-3.73 0.66,0.66 0 0 0 0,0.8 3.42,3.42 0 0 0 1.32,4.12 z m 2.62,-4.77 a 2.18,2.18 0 0 1 0.84,2.87 2.27,2.27 0 0 1 -2.88,0.89 2.39,2.39 0 0 1 -1.19,-2.75 0.6,0.6 0 0 0 0.45,-0.23 2.26,2.26 0 0 1 2.79,-0.78 z"
         id="path1515"
         style="fill:#000000" />
    </g>
  </g>
</svg>
