<?xml version="1.0" encoding="UTF-8" standalone="no"?>
<svg
   xmlns:dc="http://purl.org/dc/elements/1.1/"
   xmlns:cc="http://creativecommons.org/ns#"
   xmlns:rdf="http://www.w3.org/1999/02/22-rdf-syntax-ns#"
   xmlns:svg="http://www.w3.org/2000/svg"
   xmlns="http://www.w3.org/2000/svg"
   xmlns:sodipodi="http://sodipodi.sourceforge.net/DTD/sodipodi-0.dtd"
   xmlns:inkscape="http://www.inkscape.org/namespaces/inkscape"
   version="1.1"
   x="0px"
   y="0px"
   viewBox="0 0 50.468239 93.099998"
   enable-background="new 0 0 100 100"
   xml:space="preserve"
   id="svg96"
   sodipodi:docname="favicon.svg"
   width="50.468239"
   height="93.099998"
   inkscape:version="1.0.1 (3bc2e813f5, 2020-09-07)"><metadata
     id="metadata102"><rdf:RDF><cc:Work
         rdf:about=""><dc:format>image/svg+xml</dc:format><dc:type
           rdf:resource="http://purl.org/dc/dcmitype/StillImage" /><dc:title></dc:title></cc:Work></rdf:RDF></metadata><defs
     id="defs100" /><sodipodi:namedview
     pagecolor="#ffffff"
     bordercolor="#666666"
     borderopacity="1"
     objecttolerance="10"
     gridtolerance="10"
     guidetolerance="10"
     inkscape:pageopacity="0"
     inkscape:pageshadow="2"
     inkscape:window-width="1920"
     inkscape:window-height="1016"
     id="namedview98"
     showgrid="false"
     inkscape:zoom="6.552"
     inkscape:cx="25.06824"
     inkscape:cy="58.9"
     inkscape:window-x="0"
     inkscape:window-y="27"
     inkscape:window-maximized="1"
     inkscape:current-layer="svg96" /><path
     d="m 43.36824,3.6 c -0.7,-1.2 -1.5,-3.6 -3,-3.6 -0.6,0 -1.3,0 -1.9,0 -2.5,0 -5,0 -7.5,0 -7.1,0 -14.1,0 -21.2000003,0 -0.4,0 -0.8,0.2 -1,0.4 -0.1,0.1 -0.2,0.2 -0.2,0.3 -1.1,1.8 -2.1,3.7 -3.1,5.6 -4,8.2 -6.1,17.1 -5.3,26.3 0.2,3 1.1,5.6 3,7.9 1.7,2 4,3.5 6.4,4.6 0.1,0 0.2,0.1 0.2,0.1 l 0.4000003,0.4 0.7,0.1 c 1.2,0.5 2.5,1 3.8,1.4 h -0.1 c 0.1,0 0.2,0 0.2,0.1 1.4,0.4 2.8,0.8 4.2,1.1 3,1.1 4.7,3.3 4.8,11.4 0,5.7 0,11.4 0,17.1 0,2.7 0,5.3 0,8 -0.1,4.1 -0.7,5.4 -2.9,5.4 -2.9,0 -5.7,0 -8.6,0 -1.8,0 -1.8,2.9 0,2.9 1.1,0 2.1,0 3.2,0 7.6,0 15.2,0 22.7,0 1.8,0 1.8,-2.9 0,-2.9 -1.1,0 -2.1,0 -3.2,0 -1.8,0 -3.6,0 -5.4,0 -2.4,0 -2.9,-1.5 -2.9,-6.4 0,-7 0,-14.1 0,-21.1 0,-0.6 0,-1.2 0,-1.8 0,-9 1.7,-11.4 4.8,-12.6 1.5,-0.3 2.9,-0.7 4.4,-1.1 0,0 0,0 0,0 v 0 c 2.3,-0.7 4.5,-1.6 6.6,-2.8 2.3,-1.3 4.4,-3 5.9,-5.3 1.9,-2.9 2,-6.5 2.1,-9.9 -0.1,-9.2 -2.8,-17.8 -7.1,-25.6 z m -32.9,-0.8 c 1.9,0 3.7,0 5.6,0 7.9,0 15.7,0 23.6,0 0.6,1 1.2,2.1 1.8,3.2 2.8,5.3 4.9,10.9 5.7,16.9 0.1,0.8 0.2,1.6 0.2,2.4 L 2.9682397,25.1 c 0.2,-2.2 0.5,-4.4 1,-6.5 1.3,-5.7 3.6,-10.9 6.5000003,-15.8 z"
     id="path90" /></svg>
